<?xml version="1.0" encoding="UTF-8" standalone="no"?>
<svg
   id="Virginia_Flag"
   version="1.1"
   viewBox="0 0 368.00836 157.62378"
   sodipodi:docname="tyranny.svg"
   width="368.00836"
   height="157.62378"
   inkscape:version="1.4.2 (f4327f4, 2025-05-13)"
   xmlns:inkscape="http://www.inkscape.org/namespaces/inkscape"
   xmlns:sodipodi="http://sodipodi.sourceforge.net/DTD/sodipodi-0.dtd"
   xmlns="http://www.w3.org/2000/svg"
   xmlns:svg="http://www.w3.org/2000/svg">
  <sodipodi:namedview
     id="namedview1"
     pagecolor="#ffffff"
     bordercolor="#000000"
     borderopacity="0.25"
     inkscape:showpageshadow="2"
     inkscape:pageopacity="0.0"
     inkscape:pagecheckerboard="0"
     inkscape:deskcolor="#d1d1d1"
     inkscape:zoom="1.6989011"
     inkscape:cx="184.53105"
     inkscape:cy="29.136481"
     inkscape:window-width="1920"
     inkscape:window-height="991"
     inkscape:window-x="-9"
     inkscape:window-y="-9"
     inkscape:window-maximized="1"
     inkscape:current-layer="Figures" />
  <defs
     id="defs1">
    <style
       id="style1">.st3{fill:#644c33}.st4{fill:#003087}.st11{fill:#b7b6b6}.st14{fill:#fff}.st23{fill:#94c2eb}.st26{fill:#be9c83}.st35{fill:#f1c6a7}.st39{fill:#9b4426}.st41{fill:#6cace4}.st47{fill:#a08e6a}.st52{fill:#c1c6c8}.st55{fill:#926844;stroke:#000;stroke-width:.75px}</style>
  </defs>
  <g
     id="Figures"
     transform="translate(-466.95272,-495.90622)">
    <g
       id="Tyrant">
      <g
         id="Tyrant_skin">
        <path
           id="e5c7b0__x28_Tyrant_x29_"
           class="st35"
           d="m 738.74,608.75 c -1.04,-0.9 -5.1,-3.53 -9.3,-1.6 -2.57,1.31 -23.45,18.19 -31.47,19.67 -0.92,0.3 -8.64,-0.53 -11.1,-0.42 -1.81,0.07 -10.29,1.07 -12.05,1.26 -1.09,0.13 -27.45,2.06 -30.17,1.6 -2.98,-0.52 -20.68,-7.4 -21.63,-7.24 -0.76,0.1 -13.3,2.84 -13.3,2.84 0,0 -1.5,7.24 -1.03,7.88 0.77,1.03 0.91,3.42 1.48,4.03 0.63,0.72 4.38,5.6 4.84,6.6 0.72,1.6 9.23,-0.94 10.86,-1.07 1.94,0.38 26.05,0.53 26.05,0.53 0,0 12.67,3.3 15.95,3.61 5.93,0.6 13.58,0.86 19.53,0.24 3.21,-0.32 12.42,-1.17 12.92,-1.04 1.46,0.4 4.06,0.8 5.35,-0.23 l 0.58,0.3 a 24.92,24.92 0 0 0 3.41,-3.25 c 0.92,-1.06 2.16,-1.43 3.49,-1.82 1.04,-0.3 1.75,-0.88 2.75,-1.3 0.86,-0.36 33.81,-13.1 34.9,-13.58 -1.58,-3.97 -7.48,-12.23 -12.06,-17.01 z m -14.64,-54.2 -11.88,-3.66 c 0,0 -3.4,-0.95 -4.95,-2.05 -1.64,-1.13 -3.62,-0.58 -5.31,-0.11 a 437.78,437.78 0 0 0 -15.12,4.52 5.45,5.45 0 0 0 -2.67,1.93 c -0.9,1.32 -1.43,2.87 -2.01,4.35 -0.28,0.75 -2.07,8.86 -0.24,11.07 1.62,-1.84 4.03,-3.67 5.43,-5.6 0.71,-0.99 1.18,-0.99 2.11,-0.76 0.95,0.23 1.9,1.13 1.9,1.13 0.04,1.03 0.29,2.04 0.03,2.9 -0.25,0.8 -1.06,1.46 -1.74,2.33 1.22,-0.04 2.28,0 3.3,-0.14 a 4.23,4.23 0 0 0 1.9,-0.8 c 1.2,-0.96 2.35,-2 3.42,-3.1 0.52,-0.53 1.36,-1.12 1.65,-1.8 0.69,-1.7 1.3,-3.22 2.02,-4.91 0.48,-1.15 1.68,-0.41 1.68,-0.41 1.1,-0.08 6.63,-1.5 8.44,-1.66 2.9,-0.25 5.82,-0.48 8.77,-0.57 1.65,-0.04 3.38,-0.88 3.27,-2.66 z m 108.87,27.89 a 25.58,25.58 0 0 0 -7.66,-14.57 c -1,-1.05 -7.17,-3.42 -7.76,-3.81 -3.8,-3.5 -21.81,-8.92 -25.05,-8.4 -3.07,0.52 -4.6,13.35 -6.94,14.06 -2.8,0.83 -5.45,1.21 -8.36,1.07 -0.67,-0.03 -4.62,-0.46 -4.83,-0.33 -1.33,0.82 -6.44,5.69 -6.25,6.7 0.56,2.57 1.94,11.3 3.22,12.24 2.36,1.72 8.5,8.46 8.91,8.4 1.54,-0.12 5.98,-0.28 6.25,-1.1 0.45,-1.46 4.75,-4.44 9.82,-4.97 -0.1,-1.03 0.5,-5.31 1.82,-6.1 0.24,1.33 3.2,3.26 4.17,3.16 0.3,-0.38 2.13,-5.1 2.15,-5.26 -0.71,-2.22 -5.08,-4.85 -4.68,-4.95 1.43,-0.37 2.9,-0.88 4.19,-1.13 0.24,-1.23 0.57,-3.17 0.94,-4.46 0.2,-0.82 8.64,6.32 9.35,6.83 2.18,1.53 3.62,0.66 4.38,-0.64 0.17,-0.79 4.18,-2.88 5.54,-2.8 0.3,0.36 3.66,4.54 4.25,7.15 1.34,0.28 2.75,7.7 3.2,9.08 1.81,-1.47 3.74,-7.74 3.34,-10.17 z m -186.8,-30.12 c 6.59,14.17 -15.79,41.12 -19.61,44.09 -1.2,0.92 -2.26,1.47 -3.87,1 l -5.2,-1.23 c -0.28,-0.38 -7.85,-20.18 -8.3,-28.12 -0.46,-8.04 0.55,-15.95 0.17,-22.55 0,0 -3.04,5.46 -7.86,12.35 -0.17,0.24 -10.6,6.67 -19.76,17.75 -6.7,8.09 -12.37,20.08 -14.63,26.86 -1.82,5.43 -5.62,4.33 -10.9,2.43 -12.57,-4.51 -38.08,-16.6 -40.7,-28.36 -0.5,-2.22 -1.23,-4.16 0.88,-6.15 2.76,-2.6 6.24,-6.84 7.46,-6.3 7.24,3.29 11.4,6.06 16.93,7.52 6.5,1.72 12.34,2.59 16.48,1.13 1.98,-0.7 3.97,-2.23 4.79,-4.22 1.48,-3.6 7.5,-13.74 9.9,-17.44 0.21,-0.35 -44.05,4.67 -53.04,5.74 0.63,1.5 -17.62,16 -19.49,15.43 -1.79,-0.52 -27.56,-39.87 -28.3,-41.47 -0.17,-0.38 -1.76,-8.74 0.09,-11.07 1.55,-1.92 4.48,-0.65 6.23,0.42 a 16.67,16.67 0 0 1 4.76,4.28 c 0.7,0.9 7.02,6.17 8.65,7 0,0 7.09,4.86 7.83,5.46 0.73,0.56 3.72,2.59 4.5,3.03 0.57,0.33 6.19,1.18 8.99,1.77 2,-0.6 9.74,-3.4 11.06,-4.12 0,0 29.48,-11.43 37.88,-14.27 14.76,-4.97 30.07,-6.88 30.07,-6.88 0.04,-0.01 11.48,-11.36 11.5,-11.32 1.74,-0.45 3.67,-11.6 12.84,-8.69 1.16,0.37 14.76,4.1 19.9,13.77 0.6,1.14 8.53,32.5 9.16,35.78 l 1.58,6.38 z" />
        <path
           id="d4baa8__x28_Tyrant_x29_"
           class="st26"
           d="m 712.53,639.51 c -0.97,0.42 -1.87,0.99 -2.77,1.53 -0.9,0.51 -1.81,1.48 -2.86,1.5 a 0.68,0.68 0 0 1 0.26,-0.67 c -0.45,-0.16 -1.3,0.43 -1.8,0.59 l -1.7,0.56 c -1.6,0.51 -3.08,0.71 -4.8,0.83 -2.43,0.16 -4.75,0.36 -7.11,0.86 -1.7,0.36 -3.77,0.22 -5.52,0.42 -0.85,0.1 -10.46,-0.03 -11.36,-0.07 -2.15,-0.1 -13.72,-1.53 -17.04,-1.82 0.27,-0.64 0.4,-0.81 0.74,-1.4 l -9.46,-1.33 c -1.9,0.09 -5.04,-0.97 -6.8,-0.52 -0.27,0.07 -4.75,0.5 -4.54,0.07 0.1,-0.19 0.08,-0.42 0.16,-0.61 -0.54,0.43 -1.6,0.55 -2.27,0.65 -1.77,0.26 -3.7,0.09 -5.47,-0.07 -1,-0.09 -2.11,0 -3.03,-0.34 -2.47,-0.92 -1.53,-4.4 -2.86,-6.07 -0.66,0.21 -1.31,0.71 -1.84,1.16 0.92,0.13 0.16,1.18 -0.2,1.48 -0.77,0.65 -1.61,0.22 -2.45,0.61 -1.32,0.63 -2.53,1.94 -3.8,2.7 -1.2,0.73 -1.05,1.09 -0.43,2.2 0.4,0.74 0.7,1.52 1.57,1.84 0.83,0.01 1.66,-0.1 2.45,-0.33 l -1.72,-2.79 c 1.74,-0.55 7.1,1.98 8.72,1.85 2.8,-0.22 28.12,1.19 30.59,1.62 1.55,0.76 6.77,1.94 7.4,1.97 0.85,0.03 16.49,1.35 17.33,1.25 1.87,-0.21 20.85,-1.79 20.97,-1.47 0.14,0.37 4.37,-0.5 4.12,-1.27 0.85,-0.84 10.97,-6.48 11.29,-6.68 -1.96,0.42 -3.92,0.95 -5.77,1.75 z M 579.77,537.38 c -1.94,1.59 0.1,5.57 -16.52,5.61 a 53.9,53.9 0 0 0 -7.51,0.57 c -17.21,2.46 -39.9,4.68 -43.57,6.26 -9.88,4.24 -3.25,14.54 -8.12,15.6 -0.76,0.16 -5.4,-6.66 -11.06,-13.97 -7.3,-9.41 -15.93,-19.84 -16.4,-19.5 -1.9,1.36 22.33,39.29 22.38,39.32 1.7,0.9 10.87,-4.13 11.6,-5.12 12.04,-16.17 5.38,-6.2 19.76,-11.02 6.69,-2.05 14.66,-0.45 30.1,-3.47 9.92,0.19 14.03,-2.81 18.93,-8.9 0.4,-0.51 6.6,-13.71 0.4,-5.38 z m 8.29,26.08 c -4.71,9.39 -24.28,16.33 -30.22,29.21 -0.3,0.64 -1.34,2.03 -10.71,-3.14 -3.87,-2.13 -17.61,-7.68 -18.5,-11.54 -0.4,-1.75 1.62,-4.24 3.07,-6.23 0.74,-1.01 9.86,2.66 15.05,3.69 2.37,0.47 6.79,-0.44 6.56,-0.57 -0.24,-0.14 -7.66,-1.49 -14.76,-4.02 -6.86,-2.44 -13.4,-6.44 -14.58,-6.49 -2.27,-0.09 -8.6,10.76 -8.65,11.08 -0.48,3.55 6.55,9.25 7.17,9.72 4.57,3.5 31.39,25.28 40.72,21.7 2.67,-1.03 6.24,-9.43 13.3,-23.56 2.65,-5.33 17.09,-19 17.72,-19.79 v -11.08 c -2.1,3.38 -4.2,7.08 -6.17,11.02 z m 22.38,-29.3 c -1.23,-0.34 -3.67,5.17 -9.1,12.23 v 12.45 c 8.52,-12.32 10.77,-24.21 9.1,-24.68 z m 12.36,-34.38 c -0.63,0.01 -6.97,12.14 -4.13,19.02 1.88,4.54 10.77,3.5 15.4,7.89 5.4,5.11 7.58,23.21 7.4,23.21 -0.87,0 -7.71,3.68 -7.9,4.09 -0.18,0.41 0.4,2.84 0.4,2.84 0,0 -0.82,-0.59 -2.02,-0.71 -1.2,-0.12 -5.7,3.36 -6.5,4.34 -0.76,0.93 -0.06,2.82 -0.01,2.97 -0.12,-0.05 -1,-0.46 -2.12,-0.35 -1.21,0.13 -3.76,2.74 -4.65,4.48 -0.88,1.74 -3.22,3.19 -3.22,3.19 -2.91,-2.78 -2.17,-26.67 -3.72,-34.03 -1.45,6.49 -2.18,13.28 -1.45,29.7 0.48,8.36 1.02,16.1 3.95,21.47 0.63,1.17 17.42,-1.48 17.34,-2.75 -0.1,-1.36 16,-29.68 16,-29.68 0,0 -6.46,-29.37 -9.84,-36.35 0,0 -14.55,-19.33 -14.93,-19.33 z m 190.8,62.14 c 2.02,2.43 3.57,5.17 2.6,8.7 h 0.02 c 3.79,0.97 6.15,-0.88 7.7,-3.34 -2.46,-1.77 -8.66,-4.41 -10.31,-5.36 z m -18.92,10.09 c -0.15,-0.13 -3.88,-11.02 -3.8,-11.04 l -0.96,-1.87 c -0.97,0.32 -2.1,8.97 -2.98,9.94 3.75,1.7 5.93,6.28 7.82,9.45 0.3,-2.27 0.24,-4.41 -0.08,-6.48 z m -55.18,37.54 c -4.26,-4.32 -7.82,-3.7 -12.76,-0.35 9.23,2.13 18.1,11.01 16.6,19.38 0,0 5.86,-2.28 6.94,-2.75 -0.18,-0.4 -1.44,-4.36 -3.2,-7.07 -1.8,-2.79 -6.92,-8.02 -7.58,-9.2 z m -33.72,26.8 c -1.55,-0.16 -2.17,0.39 -6.3,0.97 -0.71,0.1 -2.31,0.05 -2.7,0.8 -0.43,0.87 0.66,1.51 1.54,2.12 0.7,0.06 1.46,0.18 2.2,0.21 0.1,-0.3 0.24,-0.56 0.39,-0.79 l -0.01,-0.01 c 0.64,-1.01 2.04,-1.61 3.2,-1.87 0.18,-0.05 0.65,-0.09 1.17,-0.15 0.73,-0.1 1.53,-0.24 1.58,-0.56 0.06,-0.41 -0.75,-0.68 -1.07,-0.72 z m -86.53,-4.55 c 0.25,0.52 0.62,0.18 1.09,-0.14 2.34,-1.49 -2,-1.87 -1.1,0.14 z m 76.02,-65.55 c 0.82,-2.12 0.13,-3.56 -1.22,-4.36 h -0.01 c -2.77,-2.03 -5.78,-2.89 -7.27,0.49 -2.63,2.06 -2.01,5.45 -4.54,7.25 0.07,0.1 0.12,0.18 0.22,0.28 1.62,-1.84 3.37,-3.53 4.76,-5.49 0.7,-0.97 1.39,-1.17 2.32,-0.93 0.95,0.22 1.85,0.61 2.72,1.01 0.34,0.16 0.53,0.56 0.79,0.85 l -0.18,0.19 -1.15,-0.32 c 0.03,1.02 0.28,2.03 0.02,2.91 -0.25,0.8 -1.06,1.45 -1.74,2.32 1.22,-0.05 2.28,0 3.3,-0.16 2.09,-0.31 4.95,-3.46 5.96,-5.23 -1.04,1.15 -2.52,1.81 -3.98,1.19 z m 28.49,-11.48 -10.25,-3.54 a 13.05,13.05 0 0 1 -2.26,6.64 c 0.47,-0.09 0.94,-0.17 1.43,-0.21 2.9,-0.26 5.84,-0.24 8.78,-0.33 1.66,-0.04 2.42,-0.78 2.3,-2.56 z m 67.04,30.43 c -1.09,0.62 -2.37,0.43 -3.36,0.18 -0.54,-0.14 -1.08,-0.23 -1.62,-0.3 -7.14,-0.97 -19.12,-5.64 -19.12,-5.64 -0.16,-0.68 0.75,-4.46 1.7,-4.2 3.54,0.89 15.17,6.47 15.43,6.68 v 0.03 c 1.2,0.6 2.02,1.74 2.9,2.6 0.4,0.4 0.91,0.6 1.46,0.63 0.94,0.04 1.94,0.07 2.6,0.02 z" />
      </g>
      <g
         id="Tyrant_hair">
        <path
           id="_x37_85c49"
           d="m 816.57,607.11 c -0.6,-0.73 -1.56,-1.78 -1.28,-2.44 a 6.8,6.8 0 0 1 3.65,-3.7 c 1.21,-0.51 2.6,-1.91 3.34,-2.98 0.79,-1.13 5.66,-2.83 6.87,-3.93 0.87,-0.79 -1.13,-6.33 -1.2,-8.2 -0.07,-2.02 -3.57,-5.25 -3.56,-6.96 -0.68,-1.24 -3.96,-2.46 -4.6,-2.34 -0.62,0.09 -3.82,3.55 -4.45,3.84 -0.91,0.6 -10.66,-6.1 -12.15,-7.63 -0.6,0.55 -0.81,5.31 -1.72,5.37 -0.59,0.04 -2.85,0.13 -3.06,0.57 0.18,0.38 3.96,3.99 3.81,4.57 -0.18,0.66 -1.36,5.24 -2.03,5.51 -1.36,0.56 -3.89,-3.69 -4.54,-3.48 -0.5,0.16 -1.5,6.31 -1.2,6.73 -2.5,0.1 -10.02,2.5 -10.14,3.9 -0.06,1.03 2.46,3.9 2.91,3.8 0.42,-0.08 0.85,-0.85 1.29,-0.97 1.08,-0.26 4.1,0.16 3.54,1.85 -0.2,0.64 -1.02,0.57 -1.21,1.13 -0.36,1.03 3.38,1.73 4.1,1.75 0.55,0.01 2.43,2.55 3.8,3 3.05,3.13 6.11,1.28 7.1,1.26 0.3,1.42 1.39,2.23 2.64,2.6 1.73,0.5 6.11,1.73 7.51,0.42 0.46,-0.43 0.58,-3.67 0.58,-3.67 z"
           fill="#785c49" />
        <path
           id="_x35_74335"
           d="m 811.84,579.83 -0.23,0.23 0.74,2.36 1.35,-1.05 z m 23.02,10.87 c -0.3,1.28 -1.88,4.6 -2.2,5.05 -0.7,0.95 -4.94,4.94 -5.25,5.57 -0.44,0.87 -1.17,4.28 -1.67,5.07 -0.24,0.41 -4.78,3.86 -5.23,4.02 -0.97,0.33 -2.36,-0.31 -2.36,-0.31 -1.02,-0.02 -5.2,1.94 -5.34,1.78 -0.28,-0.34 -8.9,-3.9 -9.52,-3.77 -1.55,0.73 -4.95,-1.49 -5.72,-2.63 -0.36,-0.56 -2.44,-2.12 -3,-2.11 -0.9,0.02 -3.7,-0.7 -3.01,-1.45 0.6,-0.67 -0.51,-2.68 -1.16,-3.13 -0.7,-0.46 -2.57,-0.1 -2.97,0.74 -0.28,-0.19 -1.52,-1.36 -1.7,-1.49 1.1,-1.08 3.3,-2.9 4.8,-3.32 1.73,-0.49 3.6,-0.33 4.9,0.99 0,-0.18 0.14,-0.48 0.1,-0.73 2.15,1.2 3.85,5.63 6.74,5.28 0,-0.62 -0.15,-1.28 0.09,-1.84 1.23,0.65 1.3,1.4 2.2,2.28 a 4.09,4.09 0 0 0 2.93,0.99 c 0.84,-0.07 2.4,-0.72 1.12,-1.53 2.15,-0.09 3.7,0.51 5.67,-0.79 -0.05,0.03 -0.14,0.55 -0.2,0.66 -0.1,0.22 -0.25,0.42 -0.4,0.61 -0.34,0.37 -1.32,1.55 -1.61,1.97 -0.38,0.56 1.66,1.14 1.66,1.14 1.25,0.05 1.6,-1.17 2.84,-1.58 a 22.77,22.77 0 0 0 5,-2.78 c 0.48,-0.92 2.79,-3.33 3.4,-3.75 1.57,-1.07 3.8,-0.67 5.28,-1.91 0.54,-0.47 2.04,-4.87 2.04,-4.87 l 0.8,-4.07 c -0.14,-1.54 0.12,-2.97 -0.02,-4.6 1.49,0.27 1.92,0.67 1.8,1.93 -0.06,0.83 0.24,7.41 -0.01,8.58 z"
           fill="#574335" />
      </g>
      <g
         id="Tyrian_purple">
        <path
           id="_x37_2246c"
           d="m 681.36,587.16 c 0,4.6 -26.01,29.99 -26.55,30.56 -0.7,0.72 -14.22,4.63 -19.44,4.6 -1.9,0.3 -12.31,-3.43 -12.46,-4 -0.11,-0.5 -6.38,-0.44 -7.89,-0.44 -1.36,0.03 -1.44,-6.46 -0.7,-6.94 0.69,-0.43 10.87,-0.68 10.23,-2.31 -2.73,-1.02 -13.99,0.9 -13.73,-0.78 0.12,-0.83 -0.03,-5.2 0.03,-6.07 0.02,-0.27 5.93,-1.14 6.2,-2.22 0.1,-0.4 -5.17,-0.88 -5.06,-1.33 0.8,-3.39 0.7,-8.34 4.83,-9.47 2.45,-0.68 3.64,-7.59 5.73,-9.93 3.98,2.4 5.53,2.58 9.33,4.63 2.37,1.27 -1.82,-2.87 -6.53,-6.92 -0.92,-0.79 -0.44,-1.59 0.1,-2.68 a 87.22,87.22 0 0 1 5.9,-8.87 c 1.79,-1.49 3.84,-4.13 5.69,-5.59 0.57,-1.61 8.08,-4.62 8.08,-4.62 0.04,0.05 11.32,-2.16 12.77,-1.77 1.9,0.51 14.68,7.43 22.97,13.32 0.54,10.81 0.5,20.43 0.5,20.83 z m 46.14,21.13 5.96,-2.18 5.28,2.63 3.27,4.89 3.2,1.9 5.07,10.3 -4.38,2.42 3.26,1.32 3.27,0.4 0.93,0.77 6.45,-3.77 8.7,-9.74 -2.17,-11.94 -8.75,-7.65 h -4.85 l -3.64,-2.11 -12.02,2.16 -8.18,4.57 z m 52.9,-42.12 -1.16,-4.32 -2.5,-1.74 -2.08,-3.36 -7.69,-3.57 h -7 l -1.07,1.4 10.75,4.2 10.76,7.39 z"
           fill="#72246c" />
        <path
           id="_x35_12d6d"
           d="m 741.43,554 c 2.76,-0.85 7.3,-1.17 10.18,-0.9 4.38,0.5 17.94,5.23 20.9,7.89 2.85,1.88 4.28,4.68 5.51,7.82 0.21,0.57 0.18,1.23 0.31,2.15 -0.94,-0.3 -4.55,-1.02 -5.38,-0.66 a 21.25,21.25 0 0 0 -4.32,2.53 c -2.35,1.74 -2.98,4.31 -2.6,7 0.3,2.1 3.57,10.55 4.87,11.6 l 0.03,0.02 c 2.19,1.76 4.2,3.66 5.34,6.27 0.48,1.15 0.87,2.33 1.17,3.54 0.07,0.32 -0.17,0.84 -0.43,1.1 -0.73,0.76 -4.75,5.43 -5.83,6.73 -0.35,-2.44 -1.31,-5.38 -3.03,-7.43 -3.04,-3.59 -6.66,-6.34 -11.4,-7.38 -3.02,-0.66 -5.8,0.38 -8.62,1.27 -0.65,0.2 -1.33,0.43 -2,0.48 -3.85,0.25 -7.66,0.84 -11.16,2.53 a 48.68,48.68 0 0 0 -5.84,3.5 c -1.4,0.94 -0.32,4.8 -0.76,6.14 -0.05,0.17 -7.93,4.92 -11.21,7.18 -0.92,0.62 -1.59,0.73 -2.75,0.26 -1.7,-0.7 -18.3,-4.13 -18.94,-4.17 -0.28,-0.01 -0.41,0.29 -0.7,0.2 -0.89,-0.33 -3.69,-5.49 -4.63,-6.87 -1,-1.45 -1.03,-3.22 -1.55,-4.84 a 20.72,20.72 0 0 0 -3.77,-6.89 c -1.49,-1.84 -3.78,-4.08 -3.68,-6.57 0.1,-2.86 0.4,-5.82 1.54,-8.54 0.63,-1.37 6.65,-7.2 7.33,-7.35 0.7,-0.16 1.44,0.05 2.11,0.12 1.53,0.11 2.68,-0.42 3.95,-1.35 a 14.76,14.76 0 0 0 4.53,-6 c 0.26,-0.6 0.55,-1.24 0.73,-1.85 0.27,-0.95 -0.08,-1.12 1.02,-1.41 1.36,-0.36 9.64,-2.5 12.62,-2.55 a 96.2,96.2 0 0 0 4.3,-0.19 c 1.05,-0.07 3.31,-0.34 4.29,0.1 z m -135,53.99 c 0.44,0.81 2.67,1.2 4.51,0.4 -1.25,-2.39 0.8,-4.7 -0.5,-7.15 l -4.24,0.6 c 0.07,0.3 -0.76,4.58 0.23,6.15 z m 15.8,-30.03 c 0,0 -4.02,10.54 -5.66,9.33 a 3.3,3.3 0 0 1 -1.4,-3.18 c 0.32,-1.8 3.37,-6.93 4.06,-7.49 0.19,-0.15 2.28,0.78 3,1.34 z m 22.34,-23.54 c -0.19,-0.15 -12.95,9.12 -13.8,10.28 -0.58,0.76 -0.07,1.11 -0.19,1.92 -0.09,0.62 -5.58,6.98 -6.51,7.94 a 7.7,7.7 0 0 1 -2,-2.35 c -0.49,-1.13 3.25,-6.93 5.66,-7.2 1.1,-0.12 1.14,-1.49 1.03,-2.53 -0.07,-0.73 11.8,-10.33 13.02,-10.14 1.04,0.17 2.05,1.45 2.79,2.08 z m -34.3,62.95 c 0,0 -1.46,-5.87 0.32,-6.6 l 3.36,0.02 c 0,0 0.3,2.33 0.31,6.62 0,0.87 -3.83,0.37 -4,-0.04 z m 37.26,-66.31 c 0.33,-0.1 1.45,-0.98 1.96,-0.68 0.66,0.4 0.7,2.02 0.7,2.02 -0.3,0.45 -1.97,0.92 -2.47,1.16 -0.6,0.28 -0.77,-2.33 -0.2,-2.5 z m -36.38,46.83 3.42,-9.43 -3.62,0.75 -3.1,6.07 3.3,2.6 z m 167.96,-27.08 2.5,-0.6 c -0.17,-0.51 -2.51,-4.84 -4.06,-5.55 0,0 0.37,3.38 1.56,6.15 z m -10.14,33.73 a 13.99,13.99 0 0 1 1.6,8.6 4.63,4.63 0 0 1 -2.36,3.63 c 0.14,-1.74 0.17,-3.46 -0.04,-5.21 a 14.96,14.96 0 0 0 -4.71,-9.62 c -5.05,-4.14 -8.14,-4.1 -8.14,-4.1 l -5.69,-2.11 a 12.35,12.35 0 0 1 9.96,0.27 c 4,1.76 7.3,4.76 9.38,8.54 z"
           fill="#512d6d" />
        <path
           id="_x32_b1739"
           d="m 697.35,589.25 c 0.63,-0.02 1.28,0.11 1.9,0.06 0.43,-0.03 0.79,-0.21 1.22,-0.08 0.72,0.2 1.05,0.92 1.58,1.38 a 15.1,15.1 0 0 0 4.66,2.96 c 0.87,0.3 1.7,0.84 2.6,1 0.7,0.12 1.71,-0.2 2.28,0.28 0.94,0.8 0.57,2.51 1.17,3.47 -2.62,2.17 -5.84,1.68 -8.93,1.46 a 10.49,10.49 0 0 1 -3.25,-0.73 c -1.14,-0.46 -2.12,-1.05 -3.4,-1.21 -2.22,-0.32 -4.16,0.46 -6.19,-0.81 -3.89,-2.43 -6.8,-7.58 -9.22,-11.3 -1.27,2.78 5.62,22.43 5.9,25.57 2.27,0.45 28.08,5.4 29,4.78 3.29,-2.24 10.79,-7.62 10.84,-7.79 0.44,-1.33 0.82,-5.45 2.22,-6.39 1.81,-2.08 12.54,-5.64 16.4,-5.9 2,-0.45 5.78,-1.51 11.7,-0.97 6.3,0.47 13,11.62 13.35,14.05 1.32,-1.59 5.73,-6.1 5.88,-6.86 -0.04,-0.64 0.27,-1.63 0.03,-2.23 -3.78,2.7 -10.47,-0.2 -10.47,-4.6 0,-1.8 1.7,-2.63 1.48,-4.47 -0.24,-1.93 -1.47,-3.97 -1.97,-5.86 -0.43,-1.57 -0.17,-5.23 -1.25,-6.38 -1.03,1.81 0.17,4.32 0.31,6.28 0.3,3.73 -1.48,8.05 -6,7.34 -3.74,-0.59 -7.01,0.41 -10.68,0.87 -3.9,0.49 -7.48,1.85 -11.22,2.96 -3.44,1.03 -5.6,-0.37 -8.7,-1.69 -2.73,-1.18 -4.46,-2.01 -6.63,-4.1 -1.9,-1.85 -4.76,-5.83 -1.99,-8.14 0.05,-0.04 -0.25,-2.32 -0.19,-2.7 0.16,-1.03 0.52,-2.03 0.84,-3.02 0.37,-1.14 1.1,-2.33 1.32,-3.47 -0.32,0.17 -0.44,0.57 -0.61,0.88 -0.71,1.31 -1.5,2.5 -2.27,3.74 -0.65,1 -1.68,2.34 -1.69,3.57 0,0.71 0.54,1.48 0.66,2.23 a 9.14,9.14 0 0 1 -0.93,5.06 c -0.53,0.92 -1.18,1.05 -2.18,1.17 -1.44,0.18 -3.26,0.34 -4.7,0.35 -1.72,0 -2.94,-0.6 -4.38,-1.44 -1.69,-0.99 -3.02,-2.47 -4.4,-3.8 -1.29,-1.24 -1.27,-2.33 -0.65,-4 0.17,-0.4 0.5,-0.8 0.65,-1.17 0.24,-0.71 0,-1.8 0.13,-2.64 0.24,-1.78 0.73,-3.6 1.4,-5.28 0.48,-1.23 1.32,-2.39 1.77,-3.62 -0.45,0.33 -0.78,0.92 -1.14,1.33 -0.61,0.62 -1.15,1.3 -1.61,2.04 -1.2,2.06 -2.05,4.58 -3.6,6.4 0.1,-0.11 0.92,1.95 0.95,2.15 0.15,0.9 0,1.78 -0.25,2.62 -0.35,1.14 -1.43,1.62 -2.3,2.3 -0.87,0.68 -6.28,2.38 -8.03,1.82 -0.1,-0.03 -1.7,-0.53 -1.63,-0.4 1.91,4.11 6.48,3.06 10.22,2.93 z"
           fill="#2b1739" />
      </g>
      <path
         id="Sandals"
         class="st39"
         d="m 527.1,548.83 c 0.77,1.62 1.96,3.04 3.05,4.49 0.78,1.04 1.99,1.38 2.66,1.03 -3.76,-5.44 -6.18,-11.3 -6.41,-17.96 v -0.01 c -1.7,0.43 -2.1,0.94 -1.98,2.69 a 26.62,26.62 0 0 0 2.69,9.76 z m 7.44,4.71 6.97,-0.35 -1.83,-7.74 c -0.87,-2.84 -1.04,-13.28 -1.04,-13.28 l -8.61,3.05 c 0,0 0.54,2.99 1.4,9.04 0.33,2.28 3.11,9.28 3.11,9.28 z m 33.33,6.43 c -0.6,0.2 -2.4,4.04 -2.4,4.04 2.98,3.7 11,9.63 15.26,11.49 0.55,-0.87 1.83,-2.28 2.33,-3.05 -2.74,-0.9 -14.83,-11.91 -15.19,-12.48 z m -59.9,-5.5 c -0.98,0 -7.05,6.12 -8.58,8.28 -1.52,2.11 4.53,4.98 7.07,5.12 -0.6,0.22 -9.39,6.33 -9.39,6.34 -1.6,0.93 -11.53,-18.9 -13,-21.55 -0.34,-0.63 -6.16,-8.08 -7.03,-9.05 -1.97,-1.54 -8.9,-11.58 -9.35,-13.2 -0.44,-1.75 -0.93,-8.18 -0.66,-9.49 0.04,-0.14 3.24,-2.36 3.92,-2 -0.82,2.1 1.12,8.67 3.51,9.92 0.48,1.04 3.03,7.7 4.28,10.07 0.79,1.48 2.94,3.16 3.39,2.55 3.3,-4.7 8.19,-6.33 13.74,-6.62 0.15,0 1.88,1.27 2.19,1.87 0.24,0.42 3.8,4.18 15.92,5.05 1.37,3.14 5.73,6.97 5.65,6.48 -0.43,-2.78 -0.17,-5.54 0.57,-8.31 0.34,-1.25 1.2,-1.62 2.23,-1.94 -0.28,0.1 -0.07,4.89 -0.02,5.86 0.22,3.94 1.2,7.85 3.48,11.16 0.48,0.69 -4.28,2.63 -5.75,1.5 -1.38,-1.03 -5.33,-7.45 -5.74,-7.6 -1.13,-0.45 -3.45,2.37 -3.16,2.95 0.55,1 5.61,4.19 6.68,4.69 0.61,0.29 -1.97,2.76 -2.99,2.4 0,0 -5.77,-4.47 -6.96,-4.47 z M 489.8,538.75 c -1.2,-1.28 -5.58,4.65 -5.55,5.51 0.03,0.8 2.05,2.55 2.54,2.6 0.17,0.02 3.6,-7.48 3,-8.11 z m 8.12,5 c 0.15,-0.43 -3.4,-5.37 -5.12,-3.37 -0.68,0.79 -3.04,10.52 -2.8,10.9 0.1,0.18 2.98,4.72 3.48,6.47 0.07,0.28 2.86,-9.84 4.44,-14 z m 8.79,7.33 a 17.45,17.45 0 0 1 -1.77,-5.96 c -0.1,-0.88 0.68,-3.38 -1,-3.17 -0.91,0.13 -1.97,1.07 -2.6,1.7 -1.62,1.7 -4.02,10.37 -4.3,12.3 -0.12,0.84 -0.4,1.88 -0.04,2.7 0.96,2.3 8.05,-4.92 9.3,-5.83 0.63,-0.48 0.76,-1.04 0.4,-1.74 z m 69.14,33.13 c -1.05,1.44 -1.9,2.59 -1.92,2.64 0,0 -4.94,-2.45 -7.97,-4.06 -2.5,-0.65 -8.32,-7.88 -8.28,-7.67 0.2,0.75 1.06,5.1 1.56,7.29 1.38,0.91 11,11.54 11.44,12.21 -0.8,0.87 -1.56,2.13 -2.35,3.09 0,0 -7.08,-7.33 -7.36,-7.89 0.05,0.36 0.5,18.98 2.3,20.14 0.8,-0.56 -1.35,2.41 -1.81,2.18 -8.02,-2.13 -33.36,-16.22 -38.18,-21.77 -3.61,-3.53 -6.07,-7.42 -8.66,-11.63 -0.66,-1.08 0.35,-7.94 1.15,-7.07 -0.03,1.08 0.4,5.76 1.55,7 1.13,1.24 8.96,8 9.27,8.15 0.6,0.3 3.82,1.47 5.08,2.41 l 4.46,-7.83 c 0.47,-0.58 1.26,-8.13 1.64,-8.76 0.47,-0.82 1.75,-1.86 3,-1.03 0,0 0.88,0.68 3.27,1.27 -0.03,0.54 -0.02,1.11 -0.08,1.68 l 1.07,11.1 -0.31,3.02 c -0.1,0.78 -0.3,1.64 -0.03,2.42 0.15,0.46 -0.27,1.98 0.2,1.87 0.4,-0.07 1.93,-1.6 2.27,-1.8 0.49,-0.3 0.94,-0.69 1.44,-0.98 0.87,-0.55 1.62,-1.12 2.32,-1.85 0.7,-0.77 2.81,-2.3 2.49,-3.28 -0.54,-1.64 0.56,-9.38 0.89,-10.63 0.16,-0.54 5.3,-2.77 5.39,-3.04 3.76,4.22 15.09,12.38 16.16,12.82 z m -34.75,3.3 -0.74,-8.03 c -1.16,2.4 -1.66,4.7 -2.78,6.82 -0.75,1.43 -1.67,5.1 -2.87,5.21 a 63.57,63.57 0 0 0 4.56,3.14 z m 16.52,11.12 c -0.26,-5.02 -0.76,-10.58 -1.16,-11.81 0,0.25 -7.94,10.05 -10.62,12.02 -0.06,0.05 7.8,0.23 11.78,-0.21 z m 0.14,3.11 c -1.02,0.31 -3.2,0.38 -3.23,0.93 -0.08,1.01 2.18,2.64 3.23,3.41 0.06,-1.01 0.05,-2.56 0,-4.34 z m 6.28,-33.77 c -0.54,-0.3 -1.06,0.68 -1.61,1.17 -0.6,0.53 2.93,3.84 7,6.66 3.68,2.52 7.78,4.64 8.55,5.48 l 1.94,-2.65 c 0,0 -4.63,-2.35 -8.75,-5.12 -3.6,-2.43 -6.73,-5.3 -7.13,-5.54 z" />
      <g
         id="Whip_and_chain">
        <path
           id="Handle"
           d="m 690.63,567.5 h -0.02 l -0.16,0.26 c -0.26,0.43 -0.55,0.78 -0.93,1.1 -1.65,1.44 -3.05,3.24 -4.49,4.88 -0.62,0.69 -1.28,1.35 -1.9,2.07 l -2.19,2.46 c -0.87,-0.87 -1.68,-1.74 -2.5,-2.6 1.43,-1.72 2.88,-3.5 4.42,-5.2 1.65,-1.83 3.42,-3.55 5.07,-5.4 0.67,-0.73 1.56,-1.22 2.13,-0.41 0.18,0.27 0.26,0.55 0.38,0.84 0.1,0.2 0.34,0.32 0.46,0.53 0.07,0.18 0.05,0.42 0.03,0.59 a 1.8,1.8 0 0 1 -0.3,0.89 z"
           fill="#7f573c" />
        <path
           id="Flail"
           class="st39"
           d="m 671.74,586.21 c -0.01,-1.22 0.7,-5.69 1.6,-6.56 1.46,-1.4 4.89,3.66 5.42,5.1 0.44,1.24 9.02,11.82 9.47,13.9 0.36,1.51 0.9,5.13 2.17,6.32 0.43,0.4 3.6,4.82 3.64,5.12 0.1,0.54 -2.03,2.03 -2.53,1.46 -0.5,-0.57 -2.22,-3.54 -2.88,-3.08 -0.49,0.34 -0.66,3.87 -1.95,3.68 -0.99,-0.15 -5.28,-0.44 -4.98,0.19 0.52,1.09 1.26,1.95 1.91,2.92 -0.3,0.29 -2.35,2.12 -2.81,2.26 -0.61,0.15 -6.31,-12.04 -6.47,-13.53 0,0 -2.53,-14.76 -2.6,-17.78 z m -12.7,2.85 c -2.13,4.03 -5.4,7.59 -7.05,9.65 3.54,1.9 5.37,4.96 5.46,5.04 1.15,-1.27 3.04,-2.65 4.1,-3.86 0.2,-0.24 -1.38,-12.54 -2.52,-10.83 z" />
        <path
           id="Tie"
           class="st52"
           d="m 677.91,575.6 c -0.73,0.15 -2.19,1.67 -2.53,2.13 -0.45,0.6 2.31,3.29 2.6,3.53 0.47,0.42 2.94,-2 3.01,-2.21 0.19,-0.56 -2.61,-3.54 -3.08,-3.44 z" />
        <path
           id="Chain"
           class="st52"
           d="m 610.38,624.64 2.55,-0.75 0.05,-0.43 c -0.65,-0.1 -1.3,-0.32 -1.92,-0.23 -0.22,0.01 -0.37,0.71 -0.68,1.41 z m 3.52,-1.72 c -0.08,-0.39 -0.15,-0.64 -0.16,-0.91 -0.26,-1.8 -1.07,-2.52 -2.92,-2.51 -0.94,0.02 -1.88,0.1 -2.8,0.22 -1.13,0.14 -1.86,0.8 -2.17,1.94 1.18,-0.19 2.27,-0.13 3.38,-0.42 1.43,-0.36 2.15,-0.33 2.89,0.9 0.37,0.6 0.92,1.26 1.9,1.1 l -0.02,-0.38 -0.1,0.05 z m -5.73,4.48 c 1.15,-0.08 1.1,-0.78 1.02,-1.37 l -3.46,-1.25 c 0.22,2.04 1.02,2.72 2.44,2.62 z m 0.54,-4.12 c -0.26,-0.17 -0.53,-0.48 -0.82,-0.51 a 6.31,6.31 0 0 0 -1.68,0.06 c -1.32,0.17 -1.62,0.2 -1.3,1.72 1,-0.25 2.16,-0.18 3.14,-0.5 0.27,-0.11 0.45,-0.51 0.66,-0.78 z m -18.23,8.74 a 0.68,0.68 0 0 0 -0.23,-0.2 c -0.58,-0.3 -1.54,0.58 -2.23,0.55 a 2.78,2.78 0 0 0 -0.64,-1.04 c 0.17,-0.66 0.98,-1.28 1.37,-1.65 0.15,-0.13 0.29,-0.28 0.4,-0.43 0.3,-0.15 0.63,-0.3 0.97,-0.41 l -0.49,-2.06 c -0.16,0.09 -0.29,0.2 -0.44,0.28 -0.35,-0.38 -0.87,-0.35 -1.44,0.03 -1.4,0.96 -1.97,2.51 -3,3.7 a 3.92,3.92 0 0 0 -0.47,-0.07 l -0.02,-0.26 c -4.05,0.99 -4.46,4.5 -2.02,4.27 0.55,-0.05 1.04,0.9 1.5,0.14 0.58,-0.92 0.17,-2.78 0.99,-2.32 1.56,0.89 2.21,2.62 0.96,3.16 -1.38,0.6 -1.18,1.03 -0.83,1.74 0.23,0.48 0.48,1.4 0.5,1.37 1.63,-2.26 5.88,-3.57 5.29,-6.9 -0.08,0.03 -0.1,0.08 -0.18,0.1 z m 57.33,16.62 a 52.15,52.15 0 0 0 -4.26,-0.15 l -1.5,-0.08 c 0.4,-1.44 -2.3,-2.8 -2.37,-2.82 -1.55,-0.26 -2.03,-0.1 -2.73,0.12 -0.76,0.24 -1.39,0.82 -2.01,1.3 -0.45,0.35 -1.31,1.05 -1.92,1.13 -0.65,0.1 -1.19,-0.48 -1.71,-0.77 0,0.09 -0.04,0.2 -0.03,0.27 -0.1,-0.03 -0.2,-0.1 -0.3,-0.16 -0.56,-0.4 -1.03,-0.93 -1.53,-1.42 a 9.2,9.2 0 0 0 -1.87,-1.7 9.48,9.48 0 0 0 -1.43,-0.9 l -0.06,-0.05 c -1.05,-0.59 -2.03,-0.62 -3.15,-0.85 -1.12,-0.22 -2.96,-3.17 -4.1,-1.8 -0.56,0.7 0.8,2.09 1.18,2.66 0.3,0.46 0.69,0.9 0.86,1.42 0.16,0.49 0.07,1.08 0.17,1.6 0.1,0.61 0.36,1.27 0.67,1.82 0.38,0.7 0.93,0.76 1.49,1.25 1.36,1.53 3.24,2.67 4.37,2.25 l -0.15,-0.3 c 1.17,0.26 2.36,0.5 3.49,0.85 0.65,0.3 1.29,0.6 1.94,0.83 0.34,0.12 0.81,0.09 1.25,-0.02 0.19,0.01 0.38,0.02 0.6,0 0.45,-0.02 0.9,-0.07 1.36,-0.13 a 2.3,2.3 0 0 0 -0.13,0.54 c 2.1,-0.06 3.57,-1.1 5.06,-2.6 l 0.99,-0.09 c 2.07,0.12 3.6,0.31 5.15,-0.1 1,-0.13 1.13,0.05 1.63,-0.25 0.27,-0.16 0.36,-0.54 0.25,-0.84 L 649,649.6 c -0.18,-0.53 -0.64,-0.9 -1.19,-0.96 z m -12.12,1.74 c -0.44,-0.67 0.14,-1.9 0.86,-2.22 1.02,-0.42 2.48,0.38 2.15,1.62 -0.28,0.97 -2.42,1.5 -3,0.6 z m -2.05,1.14 -0.46,0.16 -0.15,-0.05 c 0.21,-0.02 0.4,-0.06 0.61,-0.1 z m -8.18,-5.42 c 1.2,0.35 2.3,0.88 2.15,1.83 l -0.07,-0.06 c -0.24,0.29 -0.66,0.42 -0.72,0.76 -1.24,0 -2.03,-0.6 -2.38,-1.77 l -0.03,-0.15 c 0.36,0.05 0.76,-0.26 1.15,-0.44 l -0.12,-0.17 z" />
      </g>
    </g>
  </g>
</svg>
