<?xml version="1.0" encoding="UTF-8" standalone="no"?>
<svg
   height="477"
   viewBox="0 0 188.913 126.206"
   width="714"
   version="1.1"
   id="svg12"
   sodipodi:docname="tricolor.svg"
   inkscape:version="1.4.2 (f4327f4, 2025-05-13)"
   xmlns:inkscape="http://www.inkscape.org/namespaces/inkscape"
   xmlns:sodipodi="http://sodipodi.sourceforge.net/DTD/sodipodi-0.dtd"
   xmlns="http://www.w3.org/2000/svg"
   xmlns:svg="http://www.w3.org/2000/svg">
  <defs
     id="defs12" />
  <sodipodi:namedview
     id="namedview12"
     pagecolor="#ffffff"
     bordercolor="#000000"
     borderopacity="0.25"
     inkscape:showpageshadow="2"
     inkscape:pageopacity="0.0"
     inkscape:pagecheckerboard="0"
     inkscape:deskcolor="#d1d1d1"
     inkscape:zoom="1.6205451"
     inkscape:cx="356.97865"
     inkscape:cy="238.5"
     inkscape:window-width="1920"
     inkscape:window-height="991"
     inkscape:window-x="-9"
     inkscape:window-y="-9"
     inkscape:window-maximized="1"
     inkscape:current-layer="svg12" />
  <path
     d="M-301.551 98.246h0"
     fill="none"
     stroke="#000"
     stroke-width=".265"
     id="path1" />
  <g
     fill-rule="evenodd"
     id="g3">
    <path
       d="M108.169 52.335l13.703-4.042 6.065.225v4.042l-8.648-.337-7.301 3.481-3.145-.561z"
       fill="#0a1f62"
       id="path2" />
    <path
       d="M58.675 53.471l10.432-5.634 1.079 4.316-10.792 5.994 1.439 4.076 7.794-5.395 11.271-5.275 5.875 4.316-11.871 3.117-15.708 11.628-1.799-5.275 3.597-3.117.24-1.798-1.439-3.237z"
       fill="#0a1e65"
       stroke="#000"
       stroke-width=".262"
       id="path3" />
  </g>
  <path
     d="M0 0h188.912v126.206H0z"
     fill="#fff"
     id="path4" />
  <path
     d="M140.802 0h48.111v126.206h-48.111z"
     fill="#d80025"
     id="path5" />
  <path
     d="M0 0h48.111v126.206H0z"
     fill="#0a1f62"
     id="path6" />
  <path
     d="M60.484 68.06c.286-.337.572-.636.635-.663.135-.06-.071-1.028-.231-1.09-.06-.023-.232.128-.381.337s-.305.395-.347.413c-.118.052-.709-1.373-.829-2.002-.122-.636-.315-.779-.652-.481-.265.235-.25.324.372 2.209l.505 1.725c.056.431.268.328.929-.45zm1.909-1.877c.03-.118-.184-.955-.476-1.86-.566-1.755-.752-2.019-1.099-1.559-.145.193-.078.559.368 1.999l.63 1.796c.169.065.523-.167.576-.376zm2.457-1.984c.367-.359.549-.665.551-.925.006-.563-.226-.999-.547-1.029-.241-.023-.282-.089-.305-.496-.03-.537-.37-.962-.754-.943-.32.016-1.562.749-1.587.937-.012.079.159.768.378 1.531l.482 1.789.085.403.575-.365a8.36 8.36 0 0 0 1.122-.901zm-1.227-.507c-.134-.303-.109-.428.125-.61.202-.157.39-.191.602-.107.288.114.296.147.117.503-.295.585-.64.673-.844.214zm-.336-1.332c-.243-.094-.256-.362-.028-.544.279-.222.619.041.426.329-.155.232-.237.277-.399.214zm4.868-.313c.217-.216-.084-.94-.343-.825-.101.045-.314.211-.474.369-.401.397-.634.379-.736-.058-.062-.265.006-.428.247-.599.183-.129.362-.342.4-.473.095-.335-.221-.614-.46-.405-.106.093-.281.156-.389.141-.354-.052-.15-.472.388-.802.433-.265.506-.374.43-.642-.085-.297-.123-.302-.484-.057l-.889.584c-.373.239-.483.393-.443.621.048.272.799 3.056.864 3.202.034.077 1.669-.836 1.889-1.055zm1.253-1.417c-.2-.888.433-1.169.8-.356.097.215.204.253.428.154.412-.183.427-.299.087-.662-.253-.27-.272-.39-.137-.855.189-.651-.1-1.449-.582-1.605-.409-.133-1.19.069-1.609.415-.307.255-.315.349-.103 1.234l.376 1.633c.162.754.281.893.633.738.181-.08.208-.253.108-.696zm-.296-1.584c-.081-.081-.187-.289-.236-.463-.07-.248-.001-.365.326-.549.742-.417 1.042.238.389.849-.263.246-.362.28-.478.163zm13.06-4.148c.079-.34-.309-1.027-.686-1.214-.134-.066-.501-.111-.816-.1-.584.021-.914-.259-.504-.428.124-.051.493-.113.819-.136.784-.056.809-.073.65-.43-.163-.367-.769-.362-1.616.013-.626.278-.914.831-.692 1.332.098.222.276.296.702.29.98-.012 1.031.002 1.227.331.32.539-.144.771-1.131.566-.241-.05-.302-.004-.361.267-.039.18-.017.382.05.449.1.1.824.072 1.478-.058.28-.056.813-.59.881-.882zm-8.967 3.896c-.012-.184-.145-.713-.297-1.175-.343-1.046-.322-1.384.103-1.633.243-.143.309-.282.244-.513l-.09-.317-1.152.62c-1.068.575-1.367.859-1.098 1.044.059.041.213.028.341-.029.463-.205.718.071.946 1.02.309 1.293.457 1.568.766 1.431.152-.067.25-.253.237-.449zm2.284-1.012c.063-.238-.689-3.026-.847-3.14-.129-.093-.574.106-.597.266-.01.069.12.613.286 1.211l.445 1.596c.123.446.174.496.398.397.141-.062.282-.211.314-.33zm3.541-1.753c-.131-.295-.186-.295-.954.003-.725.281-.834.287-.979.055-.211-.338.087-.725.735-.954.417-.147.482-.219.413-.461s-.167-.262-.641-.124c-.658.192-.755.171-.772-.165-.011-.208.112-.292.719-.489.707-.23.727-.249.595-.548s-.159-.301-1.218.168l-1.08.479.139.512.327 1.444c.323 1.601.239 1.554 1.641.933 1.203-.533 1.213-.541 1.075-.851zm49.06 15.483c-.188-1.681-.299-1.962-.753-1.907-.291.036-.32.243-.134.963.091.353.104.635.032.696-.149.127-.663-.407-1.136-1.181-.303-.495-.406-.569-.693-.497l-.338.084.191 1.706c.153 1.366.233 1.728.4 1.814.367.189.458.008.408-.803-.057-.917.119-1.043.568-.41.464.654 1.14 1.233 1.402 1.202.217-.026.222-.169.054-1.667zm-3.926 1.54c.061-.111-.007-.899-.166-1.915l-.269-1.726-.342-.001c-.304-.001-.344.058-.363.533-.027.702.377 2.977.565 3.179.081.087.22.149.309.138s.209-.105.266-.208zm-1.617-.022c.07-.163-.181-.831-.818-2.18-.681-1.44-.918-1.747-1.273-1.648-.223.062-.344.361-.621 1.527-.458 1.929-.473 2.239-.103 2.194.157-.019.37-.18.475-.359.176-.3.229-.315.718-.206.29.065.702.277.915.471.391.356.613.419.708.2zm-1.902-1.472c-.212-.11-.197-.833.017-.859.188-.023.455.46.395.716s-.139.286-.413.144zm-2.641-.238c-.067-1.448.005-1.61.688-1.56.394.029.426.002.389-.328-.031-.279-.122-.369-.405-.402l-1.397-.2c-.568-.087-1.116-.111-1.218-.054-.347.194-.14.516.463.718l.602.202.075 1.328c.086 1.539.176 1.801.577 1.689.267-.074.282-.17.226-1.393zm-2.579-.996l-.165-1.877c-.023-.019-.185-.035-.361-.035-.305.001-.317.04-.261.873.032.48.007.879-.058.887s-.411-.45-.77-1.018c-.639-1.008-1.047-1.312-1.26-.937-.054.095-.058.876-.008 1.734.077 1.338.124 1.589.327 1.762.13.111.329.17.442.132.166-.056.181-.21.08-.791-.075-.43-.073-.728.007-.737.073-.009.425.423.784.96.568.851.698.971 1.01.933l.359-.044-.124-1.841zm-4.44.813c.125-.221.201-3.361.085-3.518-.043-.059-.214-.09-.379-.07-.276.034-.302.125-.324 1.13-.052 2.409-.049 2.455.154 2.561.262.136.338.119.464-.103zm-2.154-2.456c-.422-1.687-.624-2.096-1.012-2.049-.205.025-.237.073-1.107 1.65-.749 1.358-.747 1.531.016 1.438.644-.078 1.485.25 1.652.645.109.259.611.366.787.168.056-.062-.094-.891-.335-1.852zm-1.223.358c-.318-.15-.333-.391-.055-.879.297-.522.467-.415.552.346.072.641-.032.752-.497.533zm-2.146-.044a46.42 46.42 0 0 0 .158-1.665c.099-1.205.088-1.362-.111-1.531s-.295-.132-.935.356c-.44.336-.751.493-.812.411-.054-.073-.182-.517-.284-.985-.157-.721-.238-.873-.524-.985-.263-.102-.357-.092-.42.047-.192.421-.582 2.985-.484 3.184.172.351.519.117.623-.42.151-.779.338-.709.538.202.1.455.224.823.274.816s.3-.257.553-.557.534-.556.623-.568c.204-.028.276.576.143 1.192-.08.372-.061.512.091.667.273.28.51.211.566-.165z"
     fill="#fff"
     id="path9" />
  <path
     d="M81.411 52.15c-.048 0-.103.002-.166.006-.289.018-.342.035-.555.174-.145.095-.282.223-.355.336l-.203.303c-.053.074-.087.181-.089.284-.008.345.28 1.001.434.989.03-.002.064.024.076.059.022.062.558.31.663.306a1.51 1.51 0 0 1 .308.113c.415.187.536.483.321.789-.133.189-.329.264-.588.226-.222-.033-.315-.1-.418-.299-.069-.133-.086-.141-.262-.12-.297.034-.317.054-.294.271.036.331.19.556.503.737.334.192.498.199 1.001.042.325-.101.662-.432.778-.762.031-.089.06-.29.065-.448.01-.373-.075-.553-.417-.883-.214-.206-.314-.268-.535-.331-.387-.111-.736-.261-.816-.352-.07-.079-.096-.411-.04-.507.062-.107.31-.209.498-.205.208.005.326.053.536.217.113.088.164.101.265.07.389-.12.17-.709-.348-.937-.124-.055-.215-.076-.361-.077zm-2.806.888c-.032-.001-.072.001-.126.004-.121.007-.327.058-.46.114a5.25 5.25 0 0 1-.522.18c-.363.101-.625.191-.707.242-.036.023-.149.061-.251.085-.185.044-.186.044-.19.211-.005.21.115.766.235 1.09a3.22 3.22 0 0 1 .131.496 11.52 11.52 0 0 0 .16.725l.217.889c.152.641.134.614.38.561a2.81 2.81 0 0 0 .43-.141h.001c.29-.125 1.042-.397 1.347-.487s.342-.124.346-.313c.003-.146-.115-.418-.179-.412-.053.005-1.023.287-1.274.372-.324.109-.451.117-.491.03-.082-.176-.197-.722-.161-.762.021-.023.186-.091.366-.15s.394-.142.474-.183c.144-.074.147-.08.128-.256a1.66 1.66 0 0 0-.059-.296c-.04-.115-.04-.115-.329-.067l-.49.103c-.25.069-.269.051-.368-.329s-.096-.505.019-.566c.136-.072 1.192-.43 1.291-.438.239-.019.362-.293.248-.552-.05-.115-.067-.145-.162-.148zm-3.656 1.249c-.051-.012-.115.003-.208.039-.259.102-.266.169-.077.695l.351 1.082.242.761.287.798c-.001.035.016.095.036.134s.062.139.093.224c.061.17.102.179.313.071s.233-.179.155-.472l-.355-1.122-.223-.649-.483-1.442c-.042-.067-.081-.105-.132-.117zm-.982.599a.45.45 0 0 0-.08.009.54.54 0 0 0-.189.064c-.025.021-.247.123-.492.227l-1.166.503c-.5.226-.541.257-.566.425-.021.146.055.442.126.487.02.013.099-.013.176-.057s.272-.135.434-.202c.433-.178.41-.206.653.767.234.939.486 1.727.615 1.929.078.121.136.125.315.022.071-.041.132-.097.137-.126.012-.08-.119-.626-.244-1.027a6.12 6.12 0 0 1-.158-.613l-.079-.377c-.119-.42-.215-.845-.204-.915.009-.061.12-.142.436-.318.485-.271.521-.325.413-.632-.045-.128-.064-.166-.127-.167zm-3.663 1.865c-.265.003-.646.088-.88.212a12.53 12.53 0 0 0-1.129.687l-.103.084.047.243c.06.311.145.578.231.73.055.097.423 1.293.685 2.225.056.199.197.437.257.433.019-.002.089-.029.156-.062.172-.084.28-.182.294-.266s-.16-.742-.293-1.122c-.047-.133-.08-.275-.073-.315.014-.087.222-.251.538-.424l.23-.127.242.283.463.584c.241.33.349.381.603.279s.235-.153-.388-.989c-.158-.211-.285-.406-.283-.433a1.41 1.41 0 0 1 .148-.484c.106-.21.121-.4.059-.735-.076-.41-.265-.661-.589-.778a.65.65 0 0 0-.216-.026zm-.166.829c.042-.001.074.001.099.007.05.012.075.039.112.09.103.146.07.336-.096.551-.101.131-.215.214-.501.362-.203.105-.409.194-.457.198-.068.005-.114-.069-.211-.337-.148-.412-.141-.43.288-.669.265-.148.342-.172.601-.192l.164-.01zm-2.546.641c-.061.001-.638.34-.695.408-.032.038-.074.069-.094.069s-.149.086-.286.191l-.272.191c-.012 0-.074.039-.136.088s-.229.159-.371.244c-.158.095-.263.184-.272.23-.019.096.071.514.217 1.011l.341 1.235.18.657.12.46c.011.064.05.171.088.239.086.152.158.132.669-.19l.483-.298c.067-.039.209-.138.315-.22s.253-.175.328-.207c.341-.145.421-.303.344-.684-.058-.284-.123-.273-.651.117a4.67 4.67 0 0 1-.346.207l-.328.191c-.035.025-.136.087-.226.139l-.164.095-.079-.156c-.151-.299-.236-.579-.201-.66s.31-.293.552-.433a.44.44 0 0 0 .15-.134c.033-.068-.035-.424-.093-.483-.063-.065-.254-.028-.472.093-.212.117-.226.119-.318.048a1.1 1.1 0 0 1-.242-.603c.006-.052.092-.134.24-.233l.397-.27.498-.32c.416-.257.434-.273.46-.408.024-.122-.086-.615-.136-.614zm-3.219 2.464c-.129.009-.22.065-.565.282-.549.344-1.077.761-1.153.91-.072.14-.041.503.074.872.104.334.168.592.239.967.051.266.28 1.209.426 1.753.087.322.034.335.765-.188.793-.568 1.145-.934 1.295-1.347.206-.567.125-1.055-.222-1.347-.183-.154-.201-.235-.117-.538a1.37 1.37 0 0 0-.018-.858c-.121-.369-.259-.491-.571-.505l-.153-.002zm-.079.854c.121.005.16.031.193.132.092.28-.031.58-.358.869-.24.212-.534.411-.604.408-.026-.001-.079-.129-.118-.284s-.062-.346-.053-.425c.015-.125.046-.17.235-.346.26-.242.499-.362.705-.355zm-2.831 1.325c-.015-.003-.032 0-.051.007-.111.037-.338.282-.357.384-.008.041.041.207.108.368a2.3 2.3 0 0 1 .14.45c.01.085.038.2.064.253.091.192.196.495.209.609.015.124.137.516.307.988a2.54 2.54 0 0 1 .122.458c.01.093.068.262.13.375.147.266.266.276.417.035.095-.151.105-.19.098-.352a2.54 2.54 0 0 0-.108-.497l-.19-.629-.34-1.055-.191-.589a6.02 6.02 0 0 0-.213-.596c-.066-.146-.1-.201-.146-.209zm3.187.276c.09.008.168.034.202.075.089.112.127.373.078.547-.033.118-.088.197-.222.321-.098.091-.197.165-.22.164s-.112.044-.197.101c-.263.173-.313.173-.387.001-.129-.302-.185-.601-.132-.707s.434-.403.608-.471c.081-.031.182-.041.271-.033zm-5.806 1.881c-.014-.002-.028.001-.042.007-.039.017-.084.063-.141.128-.206.232-.207.206.04 1.027l.075.3c.01.063.059.228.11.366s.113.347.138.465.08.298.122.4.099.296.128.429c.058.272.181.648.317.968l.081.191.062-.049.063-.083c.063-.084.246-.266.407-.403l.389-.325c.053-.042.179-.167.28-.277s.286-.285.411-.39c.213-.178.228-.2.235-.351.004-.089-.02-.245-.054-.347-.049-.148-.081-.183-.159-.176-.116.011-.393.218-.59.44a2.87 2.87 0 0 1-.276.269c-.074.06-.222.206-.327.322-.233.26-.276.244-.369-.134l-.531-1.858c-.168-.566-.249-.826-.329-.899v-.001c-.013-.012-.026-.019-.04-.021zm.118 5.106l-1.076-5.007"
     fill="#f9f9f9"
     id="path12" />
</svg>
